<?xml version="1.0" standalone="no"?>
<!DOCTYPE svg PUBLIC "-//W3C//DTD SVG 20010904//EN"
 "http://www.w3.org/TR/2001/REC-SVG-20010904/DTD/svg10.dtd">
<svg version="1.0" xmlns="http://www.w3.org/2000/svg"
 width="640.000000pt" height="960.000000pt" viewBox="0 0 640.000000 960.000000"
 preserveAspectRatio="xMidYMid meet">

<g transform="translate(0.000000,960.000000) scale(0.100000,-0.100000)"
fill="#000000" stroke="none">
<path d="M0 7600 c0 -1809 1 -2000 16 -2000 11 0 14 6 8 22 -6 20 -5 21 10 9
9 -7 16 -19 16 -26 0 -7 7 -18 15 -25 12 -10 15 -10 15 4 0 24 15 20 49 -15
42 -42 40 -59 -5 -59 -29 0 -44 -8 -71 -35 -19 -19 -38 -35 -43 -35 -6 0 -10
-324 -10 -866 l0 -866 33 20 c17 11 52 28 77 38 25 9 54 25 65 35 11 9 36 24
56 32 19 8 55 33 80 57 54 51 207 141 409 240 62 31 180 105 190 120 7 12 189
105 271 140 39 16 88 44 109 60 49 39 100 60 146 60 20 0 65 14 101 31 35 17
70 28 78 26 13 -6 35 -87 35 -130 0 -31 74 -281 110 -371 47 -119 127 -273
193 -371 88 -131 204 -263 442 -500 192 -191 341 -358 420 -466 17 -23 50 -53
75 -66 24 -14 67 -44 95 -67 27 -23 86 -66 130 -96 44 -29 99 -68 122 -87 76
-61 215 -92 269 -60 189 113 236 149 269 209 17 32 45 72 61 90 52 58 91 112
114 157 62 123 149 352 175 463 19 81 19 241 0 438 -19 198 -22 222 -52 360
-26 123 -34 180 -24 180 4 0 22 -11 41 -24 19 -13 46 -27 59 -31 14 -4 69 -50
123 -101 54 -52 103 -94 108 -94 12 0 67 -37 90 -60 8 -8 32 -24 53 -35 21
-11 48 -30 59 -42 12 -13 29 -23 39 -23 9 0 19 -3 21 -7 2 -5 21 -20 43 -34
107 -69 160 -104 165 -110 3 -3 23 -13 45 -23 22 -10 58 -26 80 -36 123 -55
203 -90 208 -90 3 0 16 -4 29 -9 13 -5 26 -8 29 -7 4 0 15 -6 25 -14 11 -9 30
-21 44 -27 83 -36 159 -74 164 -82 4 -5 31 -22 62 -37 31 -15 58 -33 61 -41 3
-7 10 -13 17 -13 6 0 19 -8 27 -18 9 -9 26 -24 39 -32 29 -18 80 -71 80 -83 0
-5 6 -14 13 -21 6 -8 19 -24 27 -36 8 -12 21 -28 28 -36 6 -7 12 -20 12 -28 0
-9 4 -16 9 -16 10 0 45 -80 73 -165 34 -103 114 -316 156 -410 40 -92 48 -117
122 -355 52 -170 71 -219 107 -272 37 -55 50 -95 62 -193 7 -52 7 -94 1 -120
-15 -62 -12 -109 10 -156 l20 -44 0 908 0 907 -42 1 c-24 1 -51 0 -61 -1 -12
-1 -22 9 -30 29 -6 17 -17 31 -23 31 -15 0 -24 33 -24 90 0 49 6 63 31 72 18
7 35 111 23 141 -5 13 0 17 20 17 15 0 44 6 66 12 38 12 40 15 40 55 0 33 -5
45 -23 55 -13 7 -52 32 -88 55 -60 40 -68 43 -136 43 -42 0 -73 4 -73 10 0 15
-55 12 -95 -4 -60 -26 -69 -58 -61 -233 l7 -153 -29 0 c-31 0 -62 26 -62 53 0
9 -6 20 -12 24 -34 21 -62 80 -66 135 l-4 57 -45 7 c-39 6 -49 3 -89 -25 -36
-26 -52 -32 -86 -29 -34 2 -45 8 -55 28 -7 14 -25 35 -40 47 -15 13 -22 23
-15 23 19 0 14 18 -8 25 -25 8 -26 40 -4 96 14 33 15 47 5 79 -6 22 -19 46
-27 55 -14 14 -20 12 -60 -17 -24 -17 -47 -29 -50 -25 -4 3 -15 2 -26 -4 -27
-14 -73 16 -104 68 -15 26 -32 43 -43 43 -10 0 -24 6 -31 14 -10 13 0 14 67
11 43 -2 123 -9 179 -16 114 -14 134 -10 134 25 0 62 -31 86 -130 101 -50 8
-199 56 -264 84 -22 10 -61 24 -86 31 -25 6 -60 18 -78 26 -18 8 -40 14 -48
14 -9 0 -30 6 -47 14 -18 8 -50 17 -71 20 -57 8 -69 25 -74 103 -2 38 -8 72
-13 78 -5 5 -9 19 -9 32 0 15 -6 23 -17 23 -9 0 -24 7 -34 16 -13 12 -28 14
-58 9 -23 -4 -43 -11 -47 -16 -3 -5 -11 -9 -19 -9 -8 0 -26 -12 -40 -26 -19
-19 -32 -24 -48 -19 -12 4 -32 8 -45 9 -13 2 -37 18 -53 37 -16 19 -35 34 -41
34 -7 0 -23 21 -36 48 -12 26 -29 47 -37 47 -17 0 -19 12 -6 38 4 9 16 35 26
57 9 22 21 47 26 55 5 8 12 22 16 30 3 8 12 18 19 22 7 5 10 16 7 27 -3 10 0
22 6 25 5 4 8 13 5 20 -3 8 5 21 17 29 14 11 20 22 16 36 -3 12 1 22 9 25 10
4 14 23 14 63 1 56 19 100 35 85 4 -4 5 6 3 21 -3 16 1 68 9 115 8 48 14 99
13 115 0 15 4 27 10 27 6 0 7 21 4 53 -16 134 -9 197 19 197 27 0 100 46 131
81 37 44 53 104 43 157 -3 16 -2 34 3 42 8 12 14 11 39 -8 38 -28 54 -28 116
2 28 13 76 32 107 41 81 25 164 116 120 132 -9 3 -33 19 -53 35 -42 32 -105
39 -116 13 -21 -56 -183 -59 -183 -3 0 20 -20 26 -20 6 0 -7 -6 -4 -12 6 -14
25 -4 238 14 286 9 24 13 88 13 205 0 149 -2 174 -19 199 -10 16 -26 31 -36
33 -25 7 -32 30 -18 56 6 12 11 36 9 52 -1 19 6 39 18 54 12 13 21 28 21 32 0
5 11 11 25 15 14 3 25 11 25 16 0 5 7 16 16 25 16 17 13 71 -8 126 -13 34 -23
34 -53 -1 -26 -31 -31 -29 -39 13 -3 17 -16 71 -28 120 -22 93 -29 217 -14
248 6 12 4 17 -7 17 -17 0 -30 37 -15 46 5 3 7 12 4 20 -3 7 0 27 5 44 9 24 8
35 -5 55 -10 16 -14 34 -10 50 5 20 1 26 -20 35 -31 11 -34 39 -6 63 17 14 20
14 20 2 0 -8 6 -15 13 -15 7 0 24 -11 39 -25 23 -21 36 -25 86 -24 l59 2 -5
48 c-4 47 -4 49 22 49 16 0 26 5 26 15 0 8 6 15 14 15 8 0 21 -7 30 -15 16
-16 36 -20 36 -7 0 5 19 18 42 30 82 42 82 42 54 102 -18 39 -33 57 -57 67
-32 13 -33 13 -76 -33 -38 -42 -43 -52 -43 -95 l0 -49 -37 0 c-34 0 -41 5 -61
41 -13 23 -37 48 -53 57 -16 10 -29 24 -29 33 0 8 -5 20 -11 26 -13 13 8 53
28 53 7 0 21 31 33 70 11 38 27 76 35 84 8 8 15 21 15 28 1 9 5 7 14 -4 7 -10
23 -18 35 -18 12 0 25 -8 28 -17 4 -10 15 -24 25 -31 10 -7 18 -19 18 -26 0
-16 89 -58 121 -57 13 0 54 3 92 7 64 6 67 5 67 -15 0 -12 6 -21 15 -21 16 0
56 -78 65 -125 3 -19 12 -31 24 -33 11 -3 28 -14 38 -27 10 -13 28 -25 40 -29
13 -3 31 -18 40 -33 40 -63 75 -105 98 -116 17 -9 27 -27 37 -67 8 -30 21 -60
29 -66 7 -6 14 -23 14 -38 0 -14 5 -26 10 -26 6 0 16 -5 23 -11 7 -5 28 -18
46 -27 23 -11 38 -27 42 -46 5 -15 16 -37 26 -48 11 -13 14 -22 7 -26 -6 -4
-14 -40 -18 -81 -12 -121 -34 -157 -102 -164 -88 -10 -136 -52 -139 -122 -2
-48 9 -64 99 -143 42 -36 71 -39 146 -14 43 14 47 14 101 -12 31 -14 68 -26
82 -26 15 0 27 -4 27 -10 0 -5 11 -12 25 -16 14 -3 25 -10 25 -15 0 -5 5 -9
11 -9 26 0 105 -74 125 -119 12 -26 38 -59 58 -74 32 -25 41 -27 86 -21 82 11
145 -26 169 -99 13 -37 26 -47 33 -25 3 9 6 9 12 0 4 -7 2 -12 -3 -12 -16 0
-13 -36 4 -50 19 -16 19 -30 0 -30 -23 0 -18 -20 11 -43 24 -18 26 -25 22 -77
-3 -41 -11 -66 -29 -88 -13 -17 -27 -31 -31 -31 -18 -2 -68 -65 -68 -86 0 -19
8 -26 38 -34 20 -6 56 -11 80 -11 l42 0 0 1705 0 1705 -3200 0 -3200 0 0
-2000z m4925 1160 c3 -5 3 -16 -2 -22 -4 -7 -8 -20 -8 -28 0 -8 -7 -16 -16
-18 -19 -3 -30 27 -22 58 6 21 37 27 48 10z m-371 -29 c7 -6 29 -9 50 -7 55 5
75 -2 69 -25 -3 -10 -12 -19 -19 -19 -8 0 -14 -9 -14 -20 0 -11 -4 -20 -9 -20
-5 0 -23 -13 -39 -30 l-30 -30 29 0 c18 0 28 -4 24 -10 -3 -5 -17 -10 -31 -10
-15 0 -24 -6 -24 -15 0 -11 -13 -15 -54 -15 -65 0 -69 7 -68 111 1 83 17 107
68 103 19 -1 41 -7 48 -13z m-1719 -991 c-4 -6 -2 -16 4 -23 7 -9 5 -13 -10
-13 -12 0 -18 5 -14 14 3 7 5 18 5 23 0 5 5 9 11 9 5 0 7 -5 4 -10z m325 -55
c0 -11 -31 -11 -39 -1 -9 10 -6 12 14 8 14 -2 25 -6 25 -7z m25 -5 c3 -5 1
-10 -4 -10 -6 0 -11 5 -11 10 0 6 2 10 4 10 3 0 8 -4 11 -10z m-441 -14 c-3
-8 -12 -17 -20 -20 -11 -4 -12 -2 -1 14 14 23 29 27 21 6z m331 -6 c3 -5 13
-6 21 -3 9 3 20 0 25 -8 7 -12 9 -12 9 0 0 10 6 8 21 -7 13 -15 18 -29 14 -42
-7 -23 0 -26 19 -8 7 7 11 20 8 30 -2 10 1 18 7 18 5 0 8 -7 5 -15 -7 -16 11
-21 21 -5 3 5 12 7 19 4 7 -3 20 2 29 10 17 18 32 22 22 7 -3 -6 3 -14 12 -20
17 -10 17 -10 0 -11 -10 0 -15 -4 -12 -10 3 -5 19 -10 34 -10 31 0 45 -13 54
-47 3 -16 1 -23 -9 -23 -8 0 -15 11 -15 28 -1 22 -2 23 -6 5 -3 -14 -9 -20
-19 -16 -8 3 -14 0 -14 -6 0 -6 10 -11 23 -11 18 0 19 -2 7 -11 -12 -8 -10 -9
8 -4 26 7 53 -10 46 -29 -3 -7 2 -19 11 -26 14 -12 18 -11 26 1 8 13 10 12 13
-10 2 -16 16 -25 16 -11 0 13 20 -6 50 -49 8 -12 23 -21 32 -21 10 0 23 -11
29 -24 8 -17 17 -22 31 -18 17 4 19 2 13 -19 -4 -13 -12 -27 -18 -30 -5 -4 0
-10 12 -14 16 -5 20 -12 15 -31 -4 -17 -1 -26 10 -30 24 -9 19 -23 -6 -16 -20
5 -21 3 -10 -10 9 -12 10 -18 2 -23 -8 -5 -6 -13 6 -26 13 -15 14 -19 3 -20
-10 0 -11 -2 -1 -6 18 -7 15 -23 -5 -23 -9 0 -13 -3 -10 -7 4 -3 2 -12 -4 -20
-9 -9 -8 -13 0 -13 6 0 11 -7 11 -15 0 -21 -16 -19 -40 5 -12 12 -25 18 -30
15 -15 -9 -12 -25 5 -25 8 0 15 -4 15 -10 0 -5 -4 -10 -10 -10 -5 0 -10 -4
-10 -10 0 -12 26 -14 33 -2 2 4 2 1 0 -7 -2 -8 2 -19 9 -24 9 -6 7 -7 -7 -2
-48 16 -72 16 -84 2 -8 -10 -9 -17 -1 -22 5 -3 10 -1 10 4 0 6 5 11 11 11 5 0
8 -4 4 -9 -3 -5 -1 -12 4 -15 5 -4 12 -2 16 4 4 6 11 8 16 4 5 -3 7 -10 4 -15
-4 -5 -1 -9 4 -9 6 0 11 7 11 15 0 17 16 20 24 6 4 -5 0 -12 -6 -14 -7 -3 6
-6 30 -6 30 -1 41 -4 36 -13 -5 -8 -2 -9 10 -5 10 4 15 3 11 -3 -3 -6 1 -13 9
-16 13 -5 9 -13 -18 -39 -18 -18 -46 -35 -61 -39 -15 -4 -34 -14 -42 -21 -8
-8 -29 -15 -46 -16 -18 0 -41 -4 -52 -9 -19 -8 -19 -9 -1 -9 11 -1 16 -4 13
-8 -4 -3 -23 -6 -42 -5 -19 1 -35 -3 -35 -8 0 -6 -6 -10 -14 -10 -7 0 -29 -7
-47 -16 -20 -9 -24 -13 -11 -10 12 2 20 0 16 -5 -3 -5 -17 -9 -30 -9 -25 0
-63 -34 -64 -55 0 -7 3 -7 8 0 12 17 51 35 56 26 3 -4 -6 -14 -19 -21 -16 -9
-25 -22 -25 -38 0 -20 4 -23 24 -18 21 5 23 3 18 -20 -2 -14 -11 -28 -18 -31
-8 -3 -14 -9 -14 -14 0 -5 11 -3 25 3 14 6 25 17 25 23 0 15 38 50 46 42 3 -3
-3 -14 -14 -25 -26 -26 -16 -37 16 -16 13 8 29 13 37 11 7 -3 22 1 34 9 12 8
25 12 31 9 8 -5 54 11 147 51 17 8 38 14 46 14 9 0 17 5 19 12 5 13 128 19
128 6 0 -4 24 -8 53 -9 46 0 49 -1 27 -11 -23 -10 -23 -11 -5 -16 11 -2 26 -9
33 -14 15 -13 16 -38 1 -38 -5 0 -7 5 -4 10 3 6 1 10 -4 10 -6 0 -11 -8 -11
-19 0 -10 -7 -24 -15 -31 -8 -7 -15 -21 -15 -30 0 -16 -4 -17 -37 -8 -48 13
-228 3 -326 -18 -39 -9 -82 -16 -94 -16 -13 0 -21 -4 -18 -8 2 -4 -12 -15 -33
-24 -20 -10 -50 -28 -67 -42 -27 -22 -28 -24 -9 -24 12 0 33 9 48 21 30 24 34
19 9 -11 -27 -31 -82 -143 -76 -153 3 -5 9 -4 13 2 10 18 73 49 88 44 7 -3 19
1 27 7 12 10 15 10 15 -1 0 -12 2 -12 9 0 5 7 13 11 19 7 6 -4 16 -1 23 7 13
14 76 11 95 -4 6 -5 26 -7 45 -4 19 3 46 6 62 5 15 0 27 4 27 10 0 11 95 8
106 -3 3 -3 6 -21 6 -40 0 -27 5 -37 22 -42 19 -6 19 -7 3 -13 -15 -6 -12 -10
18 -24 20 -9 38 -12 41 -6 3 5 12 4 21 -4 12 -10 17 -9 28 5 7 10 16 14 19 8
3 -5 0 -12 -6 -14 -8 -3 -6 -6 5 -6 9 -1 18 -1 20 0 1 0 14 -4 29 -10 20 -8
29 -7 39 5 10 12 14 10 26 -13 10 -20 11 -28 2 -34 -8 -5 -2 -9 15 -11 14 -2
26 -7 25 -12 0 -5 3 -12 9 -15 14 -9 23 -59 12 -66 -5 -3 -10 -15 -10 -26 0
-10 -4 -19 -10 -19 -5 0 -10 5 -10 10 0 6 -4 10 -10 10 -5 0 -10 -7 -10 -15 0
-9 -7 -18 -15 -21 -10 -4 -13 -14 -9 -33 4 -18 3 -22 -4 -12 -14 20 -25 -4
-12 -28 5 -11 7 -27 3 -37 -4 -11 -3 -15 5 -10 6 3 14 1 18 -5 4 -7 3 -9 -3
-6 -15 10 -29 -35 -43 -138 -9 -63 -18 -95 -31 -106 -10 -9 -16 -19 -13 -22 7
-7 -45 -47 -61 -47 -7 0 -16 -8 -21 -17 -8 -21 -8 -20 1 -53 5 -19 4 -21 -4
-10 -7 9 -11 10 -11 3 0 -6 5 -15 10 -18 7 -5 8 -11 1 -19 -6 -7 -6 -17 0 -26
5 -8 9 -42 9 -75 -1 -33 3 -77 8 -98 9 -35 6 -76 -7 -87 -3 -3 -12 -16 -19
-29 -11 -18 -11 -25 -2 -31 9 -6 9 -13 1 -29 -7 -11 -9 -21 -5 -21 4 0 -3 -11
-16 -25 -13 -14 -31 -24 -40 -23 -8 1 -21 -1 -27 -5 -22 -14 -33 2 -33 44 0
28 4 38 12 33 8 -5 9 -2 5 9 -7 20 8 23 17 5 7 -14 0 17 -11 54 -6 21 -5 22
10 9 13 -10 17 -10 17 -1 0 9 4 9 13 2 9 -8 11 -1 8 34 -2 36 0 43 12 38 13
-5 15 4 11 63 -4 56 -9 72 -29 91 -25 23 -33 38 -15 27 6 -3 10 1 10 9 0 9 -5
16 -11 16 -5 0 -7 5 -4 10 3 6 -1 10 -9 10 -29 0 -31 1 -43 23 -7 12 -12 18
-13 13 0 -5 -7 -3 -15 4 -20 17 -51 5 -36 -14 7 -8 10 -20 9 -27 -2 -7 7 -14
20 -15 34 -2 35 -3 22 -19 -10 -12 -15 -11 -38 10 -19 18 -33 23 -60 19 -21
-3 -44 2 -58 11 -31 20 -51 19 -57 -4 -5 -19 -6 -19 -41 -3 -35 17 -48 41 -23
43 6 0 3 4 -8 9 -27 12 -43 12 -25 0 13 -8 12 -10 -2 -10 -10 0 -18 7 -18 15
0 8 5 15 11 15 5 0 8 4 4 9 -3 5 -1 12 5 16 5 3 10 19 10 35 0 15 7 30 15 34
24 9 17 40 -15 71 -16 15 -27 32 -24 36 7 12 -19 49 -35 49 -8 0 -12 3 -9 6 3
3 -10 21 -29 40 -27 27 -32 38 -23 49 8 10 7 22 -4 49 -8 20 -19 36 -25 36 -5
0 -13 14 -16 31 -5 24 -9 28 -16 18 -7 -9 -9 2 -7 35 1 32 -2 51 -10 54 -7 2
-12 12 -12 23 0 10 -4 19 -10 19 -5 0 -10 -7 -10 -15 0 -8 -4 -15 -10 -15 -13
0 -13 17 0 25 14 9 10 94 -5 89 -18 -7 -52 41 -60 85 -6 34 -4 42 12 48 24 9
34 24 27 46 -6 18 17 47 37 47 10 0 10 3 2 11 -17 17 -77 -43 -100 -99 -21
-51 -25 -203 -6 -209 10 -4 9 -66 -2 -109 -3 -14 1 -24 10 -28 18 -7 11 -55
-12 -72 -12 -10 -12 -18 -1 -53 7 -23 17 -41 22 -41 14 0 56 -42 56 -55 0 -7
9 -24 21 -38 11 -15 22 -37 24 -49 3 -13 10 -33 16 -45 10 -19 13 -20 27 -7 8
8 21 13 28 10 8 -3 15 -1 15 4 1 6 3 15 4 20 1 6 3 12 4 15 2 12 41 -16 41
-30 0 -8 6 -18 13 -22 7 -4 17 -19 24 -33 12 -29 -3 -60 -29 -60 -8 0 -19 -5
-25 -11 -6 -6 -27 -11 -47 -12 -20 -1 -36 -4 -36 -7 0 -4 -6 -7 -12 -8 -41 -4
-75 -18 -95 -40 -34 -37 -123 -91 -160 -98 -39 -7 -93 17 -172 76 -29 22 -57
41 -62 41 -5 1 -13 3 -19 4 -5 1 -23 3 -40 4 -21 1 -30 6 -30 18 0 14 -2 14
-20 -2 -13 -11 -20 -14 -20 -6 0 7 -7 19 -15 27 -8 9 -15 21 -15 27 0 7 7 3
15 -7 14 -19 15 -19 15 7 0 17 -5 27 -15 27 -17 0 -20 26 -5 35 6 4 18 4 28 0
14 -5 14 -7 2 -15 -8 -6 -10 -10 -4 -10 7 0 14 -9 17 -19 3 -14 11 -18 26 -14
12 3 21 9 21 13 0 4 10 18 23 31 13 13 29 44 36 69 17 59 32 90 44 90 5 0 17
10 27 23 18 21 24 79 19 162 -1 17 -1 39 0 50 1 11 2 57 2 103 0 46 4 94 9
108 5 13 6 24 1 24 -4 0 -6 12 -3 26 2 14 1 29 -4 33 -5 3 -17 22 -26 41 -28
55 -68 112 -68 96 0 -3 -10 4 -22 16 -13 13 -22 26 -21 29 1 4 -10 9 -25 12
-23 4 -25 4 -9 -8 9 -7 17 -17 17 -24 0 -6 4 -11 8 -11 16 0 21 -193 8 -281
-7 -45 -5 -64 8 -89 15 -31 13 -56 -3 -45 -13 7 -47 -40 -55 -75 -1 -3 -9 -16
-18 -30 -24 -37 -30 -67 -19 -88 8 -14 4 -24 -15 -45 -13 -14 -24 -31 -24 -36
0 -5 -9 -16 -20 -24 -12 -8 -20 -18 -19 -23 1 -5 0 -16 -3 -24 -4 -8 -9 -24
-13 -35 -5 -15 -8 -16 -14 -6 -5 7 -14 10 -20 6 -8 -5 -6 -12 9 -25 l21 -18
-23 -16 -22 -16 22 0 c23 0 32 -19 10 -21 -10 0 -10 -2 0 -6 6 -2 12 -11 12
-19 0 -8 -6 -14 -12 -14 -9 0 -8 -4 2 -11 11 -8 12 -12 3 -16 -7 -2 -13 -10
-13 -17 0 -7 -15 -21 -34 -31 -19 -11 -39 -28 -45 -39 -9 -19 -10 -19 -10 7
-1 27 -2 28 -23 13 -12 -9 -36 -16 -52 -16 -17 0 -41 -10 -55 -22 l-25 -23 17
27 c9 15 17 33 17 40 0 6 17 28 39 47 42 39 82 101 45 70 -10 -9 -39 -27 -64
-41 -57 -33 -96 -67 -92 -81 2 -5 -2 -13 -9 -18 -16 -9 -23 -90 -9 -99 7 -5 5
-11 -6 -21 -12 -9 -15 -10 -10 -1 10 17 -4 15 -26 -5 -21 -19 -25 -41 -3 -23
15 13 35 6 35 -13 0 -7 -4 -6 -10 3 -8 13 -9 13 -14 0 -13 -43 -13 -58 0 -53
11 4 12 -1 2 -28 -8 -24 -8 -34 0 -37 6 -2 9 -9 6 -16 -3 -7 2 -19 11 -26 8
-7 15 -19 15 -27 0 -24 39 4 46 34 6 22 8 23 16 8 7 -11 6 -21 -1 -28 -6 -6
-11 -15 -11 -20 0 -5 8 1 18 12 17 22 17 22 15 -16 -1 -21 -2 -47 -2 -57 -1
-16 -4 -17 -13 -8 -17 17 -25 15 -31 -8 -5 -20 15 -45 26 -33 4 3 7 1 7 -5 0
-6 -4 -14 -10 -17 -5 -3 -10 -1 -10 5 0 6 -5 8 -11 4 -8 -5 -7 -9 1 -14 14 -9
6 -40 -10 -40 -5 0 -10 9 -10 20 0 17 -3 18 -24 8 -14 -6 -31 -8 -39 -5 -12 4
-27 47 -31 89 -1 4 -6 12 -13 19 -7 7 -9 26 -6 46 4 24 1 37 -10 46 -23 17
-32 117 -12 117 18 0 20 39 3 45 -16 6 -20 105 -5 105 6 0 7 3 4 6 -3 4 -2 15
4 25 6 13 6 19 -1 19 -5 0 -10 -5 -10 -11 0 -5 -5 -7 -11 -3 -6 3 -9 19 -5 35
5 25 3 29 -18 29 -21 0 -26 8 -37 50 -9 34 -17 49 -26 46 -7 -3 -13 1 -13 9 0
8 -5 15 -11 15 -7 0 -8 11 -4 30 5 24 4 29 -8 24 -11 -4 -16 6 -21 40 -4 25
-4 51 -1 56 4 6 1 18 -6 26 -10 12 -9 13 7 7 17 -6 18 -5 4 13 -8 10 -21 23
-28 27 -11 7 -10 12 3 27 9 10 12 21 7 24 -5 3 -15 -1 -22 -9 -19 -23 -33 -18
-26 10 6 22 3 25 -18 25 -13 0 -27 -6 -30 -12 -3 -7 -2 1 1 17 3 17 10 32 15
33 4 2 8 8 8 13 0 6 -5 7 -10 4 -18 -11 -22 23 -6 54 13 25 14 29 2 25 -24 -9
-27 14 -4 30 l22 16 -22 20 c-26 25 -30 84 -7 106 8 9 15 24 15 35 0 10 7 19
15 19 8 0 15 -4 15 -10 0 -5 -4 -10 -8 -10 -4 0 -9 -13 -10 -30 -2 -28 12 -42
20 -20 2 6 27 12 56 14 30 3 56 6 58 9 5 5 56 -9 86 -24 10 -5 41 -9 70 -8 29
0 47 3 39 6 -22 9 -52 43 -46 52 2 5 -2 14 -10 21 -8 7 -15 23 -15 36 0 23 2
24 63 18 34 -4 77 -7 95 -7 17 0 32 -4 32 -9 0 -5 5 -6 11 -2 15 9 74 17 122
15 23 0 36 3 32 9 -12 20 143 -11 173 -34 22 -16 -14 62 -46 102 -48 60 -55
72 -44 72 6 0 14 -4 17 -10 3 -5 14 -10 23 -10 15 0 15 1 0 16 -27 27 -241 57
-346 50 -45 -4 -69 -1 -74 7 -5 8 -12 7 -25 -5 -10 -8 -29 -19 -43 -22 -19 -6
-21 -5 -10 3 12 9 10 11 -12 11 -14 0 -28 -5 -30 -11 -2 -6 -19 3 -38 19 -18
17 -39 28 -46 25 -6 -2 -19 3 -28 12 -17 18 -22 40 -6 30 6 -3 10 -1 10 4 0 6
-8 11 -17 11 -17 1 -17 1 0 14 22 17 22 26 0 26 -27 0 -5 14 25 15 15 1 39 6
55 10 20 5 27 4 27 -6 0 -11 2 -11 9 0 8 12 16 13 47 3 20 -6 41 -9 45 -6 5 3
18 0 29 -6 16 -8 25 -8 35 0 9 8 15 8 20 0 4 -6 33 -10 68 -9 34 1 75 -3 90
-10 16 -6 53 -11 83 -11 30 0 54 -4 54 -9 0 -5 16 -15 35 -22 19 -7 35 -17 35
-21 0 -4 13 -8 30 -8 22 0 28 4 24 15 -4 9 -19 15 -35 15 -16 0 -29 5 -29 11
0 7 11 9 27 6 15 -3 38 -1 51 4 15 6 21 5 17 -1 -3 -6 4 -10 17 -10 18 0 20 2
8 10 -8 5 -11 10 -6 10 6 0 5 5 -2 12 -9 9 -9 15 1 27 10 12 9 14 -5 8 -10 -3
-18 -2 -18 3 0 5 -20 15 -45 21 -25 6 -42 15 -40 20 8 12 -29 29 -64 29 -17 0
-31 4 -31 9 0 10 -63 34 -90 36 -8 0 -26 -3 -39 -8 -32 -10 -40 0 -10 13 19 8
13 9 -28 5 -35 -4 -53 -2 -53 5 0 6 5 8 10 5 6 -3 10 -1 10 5 0 6 5 8 10 5 6
-3 10 -4 10 -2 0 3 -17 15 -37 27 -35 21 -39 21 -71 6 -18 -9 -30 -12 -27 -6
4 6 8 23 10 36 2 21 -1 25 -16 21 -11 -3 -19 -3 -19 -1 0 13 47 74 57 74 7 0
12 5 10 11 -1 6 3 13 9 15 6 3 8 -9 6 -32 -3 -24 -1 -34 6 -30 5 3 8 14 5 25
-3 14 2 20 24 26 25 6 26 8 11 19 -20 15 -14 26 14 26 10 0 27 9 37 19 19 19
19 19 -3 23 -12 3 -31 1 -42 -3 -19 -7 -19 -8 1 -8 13 -1 16 -4 9 -11 -15 -15
-37 -4 -51 27 -11 23 -10 28 7 43 12 10 18 25 15 39 -3 17 0 21 10 17 8 -3 15
-2 16 2 0 4 2 15 4 25 2 9 -2 17 -8 17 -19 0 -19 83 0 126 9 22 16 44 15 49
-1 6 4 2 11 -7 21 -27 32 -21 13 6 -9 14 -13 33 -10 43 3 10 2 14 -3 8 -4 -5
-16 -11 -26 -13 -13 -2 -18 2 -15 15 2 10 10 18 18 18 19 1 40 14 40 25 0 5
-7 7 -15 4 -22 -9 -18 12 8 36 l22 21 3 -38 c2 -21 7 -42 12 -47 5 -5 6 0 3
13 -4 17 -2 20 11 15 11 -4 16 -1 16 11 0 9 5 13 10 10 6 -3 10 3 10 14 0 15
4 19 17 14 11 -4 14 -3 9 5 -4 7 -2 12 4 12 6 0 9 4 5 10 -3 5 -13 6 -23 3 -9
-3 -14 -3 -10 2 4 4 3 14 -3 22 -9 9 -8 13 0 13 6 0 11 -5 11 -10 0 -7 16 -9
43 -6 23 3 47 5 54 5 7 1 19 13 28 29 l15 27 -6 -27 c-5 -24 -3 -28 15 -28 12
0 21 -6 21 -14 0 -9 -12 -13 -36 -12 -25 1 -39 -4 -42 -14 -5 -13 -3 -13 11
-1 15 12 17 11 17 -4 0 -13 5 -16 23 -11 21 7 47 12 75 15 19 2 14 21 -5 22
-13 0 -14 2 -4 6 11 5 11 7 0 14 -10 6 -6 9 14 9 20 0 31 7 39 26 10 21 17 25
40 20 36 -7 58 2 51 20 -3 8 0 21 7 29 14 17 35 21 25 5 -3 -5 -1 -10 5 -10 6
0 15 12 20 26 11 27 33 24 24 -4 -5 -15 -4 -15 9 1 11 13 32 19 74 22 32 2 67
6 78 9 11 2 22 5 25 5 3 1 -2 6 -10 11 -13 8 -13 10 2 10 9 0 19 -4 23 -10z
m-275 -20 c0 -5 -2 -10 -4 -10 -3 0 -8 5 -11 10 -3 6 -1 10 4 10 6 0 11 -4 11
-10z m50 6 c0 -3 -4 -8 -10 -11 -5 -3 -10 -1 -10 4 0 6 5 11 10 11 6 0 10 -2
10 -4z m2942 -13 c10 -9 18 -21 18 -27 0 -20 84 -86 110 -86 38 -1 80 -73 81
-140 1 -40 7 -57 26 -76 27 -27 53 -32 53 -9 0 8 18 22 40 31 22 9 40 20 40
25 0 5 8 9 18 9 9 0 23 9 30 20 20 32 32 23 32 -24 0 -26 6 -48 15 -56 9 -8
15 -30 15 -56 0 -24 5 -44 10 -44 6 0 10 -18 10 -40 0 -29 4 -40 15 -40 8 0
15 -5 15 -11 0 -6 11 -20 25 -31 23 -18 29 -48 11 -65 -4 -5 -33 -13 -64 -18
-64 -12 -117 -2 -149 28 -11 9 -27 17 -36 17 -10 0 -33 18 -53 40 -20 22 -42
40 -48 40 -6 0 -29 9 -51 20 -22 11 -46 20 -55 20 -8 0 -33 9 -55 20 -22 10
-68 29 -102 42 -53 19 -62 26 -68 53 -15 71 -17 107 -6 118 6 6 11 20 11 31 0
11 9 38 20 61 11 22 23 63 26 90 4 28 13 56 22 63 20 15 22 15 44 -5z m-3092
-25 c0 -11 -39 -20 -60 -13 -11 4 -18 9 -16 13 5 9 76 9 76 0z m77 -18 c-3
-21 -17 -40 -17 -22 0 5 -3 17 -6 26 -4 11 -1 16 10 16 10 0 15 -7 13 -20z
m-57 -10 c0 -5 -4 -10 -10 -10 -5 0 -10 5 -10 10 0 6 5 10 10 10 6 0 10 -4 10
-10z m-185 -20 c-3 -5 -10 -10 -16 -10 -5 0 -9 5 -9 10 0 6 7 10 16 10 8 0 12
-4 9 -10z m145 -20 c0 -5 -4 -10 -10 -10 -5 0 -10 5 -10 10 0 6 5 10 10 10 6
0 10 -4 10 -10z m-205 -20 c-3 -5 -12 -10 -18 -10 -7 0 -6 4 3 10 19 12 23 12
15 0z m70 0 c-3 -5 -12 -10 -18 -10 -7 0 -6 4 3 10 19 12 23 12 15 0z m-242
-247 c-7 -2 -13 -11 -13 -19 0 -8 -4 -14 -10 -14 -5 0 -10 6 -10 14 0 14 15
24 35 24 6 0 4 -2 -2 -5z m2277 -3 c0 -5 -4 -10 -10 -10 -5 0 -10 5 -10 10 0
6 5 10 10 10 6 0 10 -4 10 -10z m-2325 -40 c-3 -5 -10 -10 -16 -10 -5 0 -9 5
-9 10 0 6 7 10 16 10 8 0 12 -4 9 -10z m15 -35 c0 -8 -2 -15 -4 -15 -2 0 -6 7
-10 15 -3 8 -1 15 4 15 6 0 10 -7 10 -15z m-7 -60 c-7 -21 -13 -19 -13 6 0 11
4 18 10 14 5 -3 7 -12 3 -20z m-23 5 c0 -5 -4 -10 -10 -10 -5 0 -10 5 -10 10
0 6 5 10 10 10 6 0 10 -4 10 -10z m30 -100 c0 -5 -4 -10 -10 -10 -5 0 -10 5
-10 10 0 6 5 10 10 10 6 0 10 -4 10 -10z m-1233 -56 c27 -17 40 -69 22 -90
-13 -16 -29 -23 -76 -38 -17 -6 -23 -3 -23 8 0 11 -10 16 -33 16 -21 0 -42 9
-60 25 -23 22 -26 29 -16 48 16 29 13 27 56 42 42 14 96 10 130 -11z m2283
-414 c0 -5 -4 -10 -10 -10 -5 0 -10 5 -10 10 0 6 5 10 10 10 6 0 10 -4 10 -10z
m-1396 -155 c11 -8 15 -15 9 -15 -19 0 -43 12 -43 21 0 13 12 11 34 -6z m2158
-7 c-7 -7 -12 -8 -12 -2 0 14 12 26 19 19 2 -3 -1 -11 -7 -17z m-329 -26 c9
-8 17 -19 17 -23 0 -9 -60 -43 -65 -37 -1 2 -5 22 -8 46 -5 40 -4 42 16 36 12
-3 30 -13 40 -22z m-145 -21 c4 -24 -13 -51 -32 -51 -6 0 -3 5 7 11 18 11 23
54 7 62 -6 3 -5 4 2 3 7 -1 14 -13 16 -25z m-72 3 c-4 -10 1 -25 11 -36 15
-16 15 -18 1 -13 -9 4 -19 13 -22 21 -5 14 2 44 11 44 3 0 2 -7 -1 -16z m615
4 c1 -7 2 -40 3 -73 2 -33 6 -72 10 -88 7 -23 6 -26 -9 -21 -12 5 -16 2 -13
-11 2 -10 -3 -20 -9 -22 -8 -3 -14 4 -14 16 -2 33 -17 72 -31 82 -5 3 -10 20
-11 37 -1 18 -8 34 -14 37 -23 8 -14 23 17 30 16 4 32 11 35 16 9 13 35 11 36
-3z m-2245 -6 c6 -4 13 -15 17 -24 5 -14 1 -18 -17 -18 -24 0 -61 32 -49 43 8
9 35 9 49 -1z m364 -37 c0 -16 3 -40 6 -53 5 -19 3 -21 -12 -16 -36 14 -74 46
-74 63 0 19 30 37 61 37 14 0 19 -8 19 -31z m102 -2 c-3 -18 1 -30 13 -40 19
-13 9 -19 -11 -5 -17 11 -22 35 -12 55 12 24 16 21 10 -10z m68 7 c11 -21 -2
-60 -20 -60 -6 0 -5 9 2 20 10 16 10 24 0 40 -7 11 -8 20 -2 20 5 0 14 -9 20
-20z m1020 -15 c0 -17 -8 -26 -32 -34 -48 -17 -58 2 -19 39 36 33 51 32 51 -5z
m-896 -8 c28 -24 38 -39 33 -50 -5 -14 -14 -16 -49 -11 -24 4 -44 7 -45 8 -5
3 10 86 16 86 3 0 24 -15 45 -33z m-649 -38 c6 -6 2 -12 -13 -15 -12 -4 -19
-10 -16 -15 3 -5 1 -9 -4 -9 -6 0 -12 7 -16 15 -11 29 -28 16 -21 -15 5 -24 3
-30 -10 -30 -14 0 -15 3 -5 15 7 9 8 15 2 15 -17 0 -8 34 13 47 20 12 52 8 70
-8z m5 -79 c0 -5 -2 -10 -4 -10 -3 0 -8 5 -11 10 -3 6 -1 10 4 10 6 0 11 -4
11 -10z m-590 -70 c0 -22 -4 -40 -10 -40 -5 0 -10 18 -10 40 0 22 5 40 10 40
6 0 10 -18 10 -40z m2735 20 c-3 -5 -12 -10 -18 -10 -7 0 -6 4 3 10 19 12 23
12 15 0z m83 -19 c3 -8 -1 -12 -9 -9 -7 2 -15 10 -17 17 -3 8 1 12 9 9 7 -2
15 -10 17 -17z m-3508 -21 c0 -17 7 -20 39 -20 37 0 39 -1 43 -37 3 -21 1 -39
-4 -41 -4 -2 -8 -21 -8 -43 0 -32 -3 -39 -20 -39 -17 0 -20 -7 -20 -40 0 -32
4 -40 18 -40 17 0 72 -54 72 -71 0 -5 7 -9 15 -9 8 0 17 -15 21 -37 4 -21 11
-41 17 -44 14 -9 -52 -79 -75 -79 -10 0 -18 -6 -18 -13 0 -8 -21 -18 -49 -25
-55 -13 -107 0 -114 28 -8 33 6 125 22 144 12 14 13 20 4 23 -8 3 -13 21 -13
44 0 21 -4 39 -9 39 -12 0 -25 71 -14 79 5 3 9 37 10 74 1 56 5 72 22 88 11
11 21 24 21 29 0 6 9 10 20 10 13 0 20 -7 20 -20z m750 -87 c0 -7 11 -13 24
-13 21 0 24 -5 29 -68 7 -80 -3 -137 -23 -137 -8 0 -19 10 -25 23 -5 12 -13
22 -17 22 -5 0 -8 19 -8 43 0 31 -3 38 -10 27 -7 -11 -8 -6 -4 17 4 21 2 39
-7 50 -11 13 -11 17 -1 20 6 3 12 19 12 36 1 30 1 31 15 13 8 -11 15 -26 15
-33z m1860 -17 c0 -9 -30 -14 -35 -6 -4 6 3 10 14 10 12 0 21 -2 21 -4z m-508
-94 c-2 -16 -10 -29 -18 -29 -17 0 -17 -1 -4 31 13 35 28 33 22 -2z m1383 -2
c3 -5 2 -10 -4 -10 -5 0 -13 5 -16 10 -3 6 -2 10 4 10 5 0 13 -4 16 -10z
m-859 -77 c-4 -4 -11 -1 -16 7 -16 25 -11 35 7 17 9 -9 13 -20 9 -24z m-2709
-75 c-2 -13 -4 -5 -4 17 -1 22 1 32 4 23 2 -10 2 -28 0 -40z m681 -70 c-1 -46
-3 -64 -5 -40 -3 28 -9 42 -19 42 -10 0 -14 12 -14 40 0 33 3 40 20 40 19 0
20 -6 18 -82z m-38 -18 c0 -23 -10 -26 -28 -8 -18 18 -15 28 8 28 13 0 20 -7
20 -20z m2755 -230 c3 -5 -1 -10 -10 -10 -9 0 -13 5 -10 10 3 6 8 10 10 10 2
0 7 -4 10 -10z m5 -70 c0 -5 -5 -10 -11 -10 -5 0 -7 5 -4 10 3 6 8 10 11 10 2
0 4 -4 4 -10z m-264 -37 c-4 -4 -12 -1 -19 7 -9 10 -9 11 1 6 7 -4 12 -2 13 6
0 11 2 11 6 0 3 -7 2 -16 -1 -19z m-1186 13 c0 -2 -7 -7 -16 -10 -8 -3 -12 -2
-9 4 6 10 25 14 25 6z m-518 -125 c14 -17 15 -21 2 -32 -19 -15 -18 -78 1
-100 14 -15 14 -18 0 -33 -9 -9 -22 -16 -28 -15 -8 0 -8 2 1 6 6 2 10 9 7 13
-3 5 -12 7 -20 3 -10 -3 -15 1 -15 12 0 9 -5 13 -11 9 -7 -4 -10 -1 -7 7 3 8
0 21 -7 29 -19 23 -26 110 -9 110 10 0 14 13 14 39 0 71 11 78 34 22 12 -28
29 -60 38 -70z m1813 109 c3 -5 1 -10 -4 -10 -6 0 -11 5 -11 10 0 6 2 10 4 10
3 0 8 -4 11 -10z m-765 -70 c0 -5 -2 -10 -4 -10 -3 0 -8 5 -11 10 -3 6 -1 10
4 10 6 0 11 -4 11 -10z m0 -44 c0 -3 -4 -8 -10 -11 -5 -3 -10 -1 -10 4 0 6 5
11 10 11 6 0 10 -2 10 -4z m-7 -40 c6 -15 -16 -40 -25 -30 -8 7 2 44 12 44 4
0 10 -6 13 -14z m240 -48 c3 -10 8 -9 22 2 14 11 19 12 22 2 3 -6 9 -10 14 -6
5 3 9 0 9 -6 0 -7 6 -10 14 -7 8 3 17 1 20 -6 3 -9 8 -8 16 3 9 12 13 12 17 2
3 -9 16 -11 39 -6 20 4 34 2 34 -4 0 -5 -18 -10 -40 -10 -51 -1 -110 -20 -110
-35 0 -7 -4 -6 -10 3 -8 13 -10 13 -10 -1 0 -19 -19 -29 -65 -35 -16 -2 -39
-8 -50 -13 -72 -32 -77 -33 -69 -9 7 22 6 22 -21 4 -16 -11 -36 -15 -50 -12
-13 3 -26 2 -30 -4 -8 -13 -50 4 -50 21 0 8 -8 15 -17 17 -10 2 -18 -1 -18 -7
0 -6 5 -11 10 -11 6 0 10 -4 10 -10 0 -6 -10 -5 -26 2 -20 9 -27 9 -33 -1 -6
-9 -14 -10 -27 -3 -23 12 -64 59 -58 65 3 2 -5 7 -16 10 -17 4 -20 2 -16 -10
5 -12 2 -13 -11 -8 -10 5 -40 9 -67 10 -28 1 -52 7 -53 12 -5 15 50 24 102 16
37 -5 46 -3 51 12 5 13 9 14 15 3 7 -11 11 -10 18 2 8 12 17 12 59 1 74 -18
171 -18 209 1 20 10 35 12 41 6 6 -6 17 -5 31 4 18 11 23 11 30 0 6 -10 10
-10 21 3 15 18 37 20 43 3z m-1036 -110 c-3 -8 -6 -5 -6 6 -1 11 2 17 5 13 3
-3 4 -12 1 -19z m593 2 c0 -5 -4 -10 -10 -10 -5 0 -10 5 -10 10 0 6 5 10 10
10 6 0 10 -4 10 -10z m-829 -43 c-10 -9 -11 -8 -5 6 3 10 9 15 12 12 3 -3 0
-11 -7 -18z m1422 -14 c-27 -67 -55 -83 -69 -40 -7 21 -8 20 -16 -10 -10 -40
-60 -77 -94 -70 -15 3 -24 0 -24 -9 0 -26 -33 -34 -145 -35 -140 -1 -155 1
-173 19 -9 9 -34 18 -55 20 -44 2 -86 29 -87 55 0 19 -16 23 -22 6 -6 -19 -45
7 -63 40 -13 27 -13 29 6 34 12 3 98 -1 192 -9 162 -13 177 -13 286 6 128 22
164 26 233 28 l47 2 -16 -37z m345 -12 c-2 -22 -6 -37 -9 -33 -7 7 0 72 7 72
3 0 3 -18 2 -39z m-1413 9 c-3 -5 -10 -10 -16 -10 -5 0 -9 5 -9 10 0 6 7 10
16 10 8 0 12 -4 9 -10z m1359 -15 c3 -8 1 -15 -4 -15 -6 0 -10 7 -10 15 0 8 2
15 4 15 2 0 6 -7 10 -15z m-27 -1 c-3 -3 -12 -4 -19 -1 -8 3 -5 6 6 6 11 1 17
-2 13 -5z m-1332 -14 c-3 -5 -11 -10 -16 -10 -6 0 -7 5 -4 10 3 6 11 10 16 10
6 0 7 -4 4 -10z m1404 -52 c13 -10 19 -18 13 -18 -6 0 -14 5 -17 10 -3 6 -17
7 -31 4 -20 -5 -24 -2 -24 15 0 23 19 20 59 -11z m-1334 13 c-3 -6 2 -14 12
-19 13 -8 9 -10 -19 -9 -20 0 -35 4 -32 9 3 4 -2 5 -10 2 -9 -3 -16 -1 -16 4
0 6 15 13 33 15 17 2 33 5 35 5 2 1 1 -2 -3 -7z m-85 -16 c0 -8 -4 -15 -10
-15 -5 0 -7 7 -4 15 4 8 8 15 10 15 2 0 4 -7 4 -15z m1295 -15 c4 -6 -6 -10
-22 -9 -25 0 -26 1 -8 9 11 5 21 9 22 9 1 1 5 -3 8 -9z m-1189 -35 c-5 -14 5
-19 32 -16 6 1 12 -3 12 -10 0 -8 -12 -10 -36 -6 -40 7 -56 17 -36 24 6 3 10
9 6 14 -3 5 2 9 11 9 11 0 15 -5 11 -15z m-126 -5 c0 -5 -5 -10 -11 -10 -5 0
-7 5 -4 10 3 6 8 10 11 10 2 0 4 -4 4 -10z m1296 -7 c-10 -11 -37 -12 -30 -2
3 5 12 9 21 9 9 0 13 -3 9 -7z m-335 -17 c-10 -11 -8 -15 6 -18 10 -2 23 3 30
12 11 13 12 13 13 -2 0 -9 -5 -20 -11 -23 -6 -4 -7 -19 -4 -36 4 -17 2 -29 -4
-29 -5 0 -18 -13 -27 -29 -10 -17 -23 -27 -31 -24 -7 3 -13 -2 -13 -11 0 -9
-6 -16 -14 -16 -8 0 -18 -4 -21 -10 -4 -6 5 -10 19 -10 18 0 26 5 26 17 0 13
3 14 11 6 6 -6 19 -9 28 -6 9 3 5 -3 -9 -13 -23 -17 -45 -19 -235 -19 -176 0
-216 3 -245 17 -19 9 -47 20 -62 23 -16 4 -28 13 -28 21 0 18 19 18 40 -1 9
-8 27 -16 41 -17 19 -2 23 1 21 17 -2 11 -4 26 -4 33 -1 6 -5 12 -10 12 -4 0
-8 9 -8 21 0 11 5 17 10 14 6 -3 10 -1 10 4 0 6 -4 11 -10 11 -5 0 -7 7 -3 16
4 11 13 14 32 9 14 -4 23 -3 19 1 -5 4 0 13 10 20 19 13 63 4 101 -20 10 -6
12 -6 7 3 -10 16 45 3 59 -14 10 -12 54 -13 74 -1 5 3 12 0 14 -6 3 -8 6 -6 6
5 1 20 27 23 34 5 4 -9 6 -7 6 3 1 11 12 16 37 17 21 1 46 8 58 16 27 19 42
20 27 2z m-777 -31 c-4 -8 -1 -15 5 -15 6 0 11 -4 11 -9 0 -4 -11 -6 -25 -3
-34 6 -33 42 1 42 8 0 11 -6 8 -15z m-87 -22 c-4 -3 0 -15 10 -25 9 -10 11
-18 5 -18 -6 0 -14 5 -17 10 -3 6 -15 10 -27 10 -17 0 -18 2 -8 15 7 8 19 15
28 15 8 0 12 -3 9 -7z m98 -33 c18 -8 17 -9 -7 -9 -16 -1 -28 4 -28 9 0 12 8
12 35 0z m185 -40 c0 -14 -14 -12 -28 2 -19 19 -14 30 8 18 11 -6 20 -15 20
-20z m-153 -15 c18 -6 20 -10 11 -25 -7 -10 -19 -15 -30 -12 -15 4 -16 7 -7
13 23 14 0 23 -26 11 -35 -16 -31 -28 13 -40 l37 -11 -50 2 c-27 1 -48 6 -47
11 2 5 -2 13 -10 17 -9 6 -7 9 8 9 21 0 48 22 39 31 -6 7 36 3 62 -6z m21 -77
c-2 -6 -10 -14 -16 -16 -7 -2 -10 2 -6 12 7 18 28 22 22 4z m-92 -23 c10 -8
14 -15 7 -15 -19 0 -43 11 -43 21 0 13 14 11 36 -6z m71 -26 c8 -8 17 -8 32 1
12 6 27 9 34 6 7 -2 4 -5 -5 -5 -18 -1 -46 -41 -29 -41 5 0 13 5 16 10 7 12
26 14 24 3 -4 -22 3 -33 20 -33 11 0 22 -6 25 -12 3 -10 8 -9 18 3 9 11 19 14
33 8 17 -6 17 -8 3 -8 -36 -2 -16 -17 24 -18 23 -1 44 -7 48 -14 5 -8 10 -8
14 0 7 11 46 -21 46 -39 0 -5 9 -10 20 -10 11 0 20 7 20 15 0 9 -6 12 -17 9
-17 -5 -17 -5 -1 9 11 8 14 17 8 23 -6 6 -5 15 1 24 10 13 10 13 6 -1 -3 -8 3
-26 13 -38 14 -20 20 -22 36 -12 17 11 16 11 -6 5 -25 -7 -25 -7 -6 15 15 16
21 18 28 9 6 -10 8 -10 8 1 0 8 2 12 5 9 3 -3 1 -17 -5 -32 -7 -20 -7 -25 1
-20 6 3 15 0 20 -7 7 -11 9 -11 9 -1 0 7 7 20 15 28 8 8 12 21 9 28 -3 8 4 16
17 19 38 10 81 -33 47 -46 -8 -3 -6 -6 5 -6 17 -1 23 -16 10 -24 -5 -2 -2 -2
5 0 8 1 25 3 39 3 22 0 24 3 19 24 -3 14 -2 27 3 30 5 3 8 -2 7 -12 -1 -13 6
-17 29 -16 17 1 38 5 48 9 21 9 22 -8 1 -29 -8 -9 -11 -16 -6 -16 5 0 17 10
26 23 14 20 17 20 28 6 7 -9 19 -14 26 -12 6 3 12 -1 12 -7 0 -10 4 -10 15 0
9 7 15 8 15 2 0 -5 10 -8 22 -4 12 3 19 1 15 -5 -4 -5 6 -10 23 -10 l29 0 -21
19 c-19 16 -54 24 -83 18 -5 -1 -4 4 3 11 17 18 15 30 -3 23 -8 -4 -15 -2 -15
3 0 5 19 10 42 12 50 3 55 6 39 25 -10 12 -8 13 10 9 17 -5 20 -3 13 8 -6 10
0 9 19 -3 33 -23 43 -23 26 -1 -12 15 -12 16 3 10 10 -3 20 -1 24 5 4 7 9 6
15 -3 6 -9 3 -18 -7 -26 -14 -10 -14 -14 0 -41 9 -17 21 -32 28 -35 7 -2 9 -8
5 -13 -5 -5 -14 -1 -21 8 -7 10 -16 14 -20 10 -4 -4 -12 -8 -17 -8 -5 -1 -11
-2 -14 -3 -2 0 -1 -12 4 -24 6 -14 6 -30 0 -38 -5 -8 -9 -9 -9 -3 0 13 -47 25
-66 17 -7 -3 -11 -17 -9 -36 l4 -32 -19 23 c-12 15 -20 18 -23 10 -3 -7 -8 2
-12 20 -4 17 -11 32 -16 32 -5 0 -4 -12 1 -26 10 -26 6 -44 -11 -44 -5 0 -9
10 -10 23 l0 22 -9 -23 c-6 -13 -6 -32 0 -46 7 -19 5 -23 -8 -22 -9 0 -19 -10
-23 -24 l-7 -25 -1 28 c-1 15 -7 27 -14 27 -8 0 -12 -14 -10 -42 l2 -43 -9 49
c-5 27 -15 53 -22 57 -22 14 0 22 31 11 26 -9 29 -8 24 5 -4 11 -2 14 5 9 7
-4 12 -2 12 3 0 6 -5 11 -10 11 -6 0 -9 3 -9 8 3 19 -3 46 -8 34 -4 -10 -8
-10 -19 -1 -19 15 -18 4 2 -26 14 -21 14 -25 2 -25 -8 0 -19 10 -24 23 -6 12
-9 16 -7 10 4 -20 -8 -44 -19 -37 -6 4 -6 -2 1 -14 9 -16 7 -21 -7 -28 -9 -4
-21 -6 -26 -5 -5 1 -13 -4 -17 -11 -5 -8 -7 -1 -5 17 5 37 -19 66 -29 35 -4
-11 -11 -20 -16 -20 -6 0 -5 8 1 21 18 33 4 34 -25 3 -25 -27 -26 -28 -14 -4
12 24 11 24 -6 10 -10 -8 -21 -14 -24 -14 -3 1 -5 -2 -3 -8 1 -5 -3 -6 -9 -3
-6 4 -9 16 -6 26 5 20 -7 26 -18 9 -4 -6 -11 -8 -16 -5 -5 4 -9 2 -9 -4 0 -6
-7 -8 -15 -5 -10 4 -15 0 -15 -15 0 -12 -6 -21 -13 -21 -7 0 -19 -6 -25 -12
-16 -16 -35 -17 -44 -4 -4 6 -15 -1 -27 -15 -11 -13 -20 -20 -21 -16 0 4 5 13
10 20 6 7 19 24 31 40 11 15 24 27 28 27 5 0 7 -12 5 -27 -2 -16 -1 -21 2 -12
3 11 12 15 25 12 11 -3 19 0 19 6 0 7 -4 9 -10 6 -5 -3 -10 -2 -10 3 0 6 11
13 25 16 14 4 23 11 20 16 -4 6 -10 8 -15 5 -4 -3 -11 2 -14 11 -3 8 -10 12
-16 9 -6 -4 -8 -11 -5 -16 4 -5 -1 -9 -9 -9 -9 0 -16 7 -16 15 0 8 -9 15 -20
15 -25 0 -27 -20 -2 -21 10 0 12 -3 4 -6 -6 -2 -9 -10 -5 -16 4 -8 1 -8 -9 1
-13 10 -15 9 -10 -13 2 -15 0 -25 -7 -25 -6 0 -10 6 -8 13 1 6 -3 11 -10 10
-7 -2 -10 4 -7 12 4 8 1 15 -5 15 -6 0 -8 7 -5 15 4 8 1 15 -5 15 -6 0 -10 5
-8 12 1 6 -9 17 -22 24 -21 11 -22 13 -5 17 17 4 17 5 -1 6 -12 0 -26 -4 -33
-11 -8 -8 -12 -8 -12 -1 0 8 -7 8 -25 0 -14 -7 -25 -15 -25 -19 0 -5 -6 -8
-14 -8 -9 0 -13 7 -11 20 3 14 -2 20 -16 20 -23 0 -25 16 -3 28 29 16 5 34
-38 28 -21 -3 -45 -8 -51 -12 -7 -3 -4 1 6 9 22 18 22 22 -5 47 -21 19 -21 20
-2 20 11 0 25 -5 31 -11z m133 -49 c0 -5 -4 -10 -10 -10 -5 0 -10 5 -10 10 0
6 5 10 10 10 6 0 10 -4 10 -10z m690 0 c0 -5 -2 -10 -4 -10 -3 0 -8 5 -11 10
-3 6 -1 10 4 10 6 0 11 -4 11 -10z m-177 -22 c9 -31 2 -33 -11 -3 -6 14 -8 25
-3 25 5 0 11 -10 14 -22z m41 -3 c3 -8 2 -15 -3 -15 -5 0 -14 7 -21 15 -10 12
-10 15 3 15 8 0 17 -7 21 -15z m89 -19 c6 -16 -2 -28 -14 -20 -12 7 -11 34 0
34 5 0 11 -6 14 -14z m-323 -6 c0 -5 -5 -10 -11 -10 -5 0 -7 5 -4 10 3 6 8 10
11 10 2 0 4 -4 4 -10z m-390 -35 c0 -8 -7 -15 -16 -15 -14 0 -14 3 -4 15 7 8
14 15 16 15 2 0 4 -7 4 -15z m-10 -40 c-10 -12 -10 -15 2 -15 8 0 18 3 22 8
11 11 67 9 62 -3 -2 -5 -11 -9 -22 -8 -25 2 -54 -15 -54 -32 0 -8 -5 -15 -11
-15 -5 0 -7 5 -3 11 3 6 1 22 -7 35 -9 18 -18 23 -33 18 -17 -4 -18 -3 -6 5 8
6 26 11 39 11 20 0 21 -2 11 -15z m153 -2 c-7 -2 -19 -2 -25 0 -7 3 -2 5 12 5
14 0 19 -2 13 -5z m682 -23 c3 -6 -1 -7 -9 -4 -18 7 -21 14 -7 14 6 0 13 -4
16 -10z m-850 -20 c-3 -5 -11 -10 -16 -10 -6 0 -7 5 -4 10 3 6 11 10 16 10 6
0 7 -4 4 -10z m100 0 c9 8 15 8 20 0 3 -5 1 -10 -5 -10 -6 0 -9 -4 -5 -9 3 -5
0 -13 -6 -17 -7 -4 -9 -3 -5 4 3 6 -3 13 -14 17 -12 4 -17 11 -13 18 5 8 8 8
11 -1 3 -10 7 -10 17 -2z m761 -18 c0 -10 -6 -19 -13 -19 -17 0 -17 24 0 30 6
3 12 6 12 6 1 1 1 -7 1 -17z m-696 4 c0 -2 -7 -7 -16 -10 -8 -3 -12 -2 -9 4 6
10 25 14 25 6z m-80 -9 c0 -2 -10 -12 -21 -23 -22 -19 -22 -19 -8 4 12 19 29
30 29 19z m140 -27 c0 -3 -9 -6 -20 -6 -22 0 -28 22 -7 29 11 4 26 -10 27 -23z
m170 3 c0 -7 11 -20 25 -29 19 -13 23 -20 15 -30 -9 -10 -15 -10 -29 4 -10 9
-17 19 -15 22 1 3 -6 7 -17 7 -24 2 -24 -9 0 -24 21 -13 34 -50 20 -59 -5 -3
-12 8 -15 25 -6 28 -24 44 -24 22 0 -10 -39 -27 -52 -23 -5 1 -8 -2 -8 -7 0
-18 -33 -21 -46 -4 -34 45 5 74 44 35 15 -15 22 -17 35 -7 19 14 23 55 5 55
-6 0 -4 6 6 13 22 16 56 16 56 0z m132 -25 c-7 -7 -10 -5 -7 8 5 29 6 30 12
16 3 -8 1 -18 -5 -24z m-362 8 c0 -2 -8 -10 -17 -17 -16 -13 -17 -12 -4 4 13
16 21 21 21 13z m460 -26 c0 -15 -3 -35 -6 -44 -7 -19 -24 -11 -24 10 0 8 4
13 9 10 5 -3 8 5 7 19 -1 25 -16 36 -16 12 0 -8 -11 -19 -25 -25 -22 -10 -25
-9 -25 9 0 11 5 17 10 14 6 -3 10 0 10 7 0 7 13 14 30 15 27 2 30 -1 30 -27z
m-150 16 c0 -17 -29 -66 -34 -58 -3 6 -2 13 4 17 5 3 10 15 10 26 0 10 5 19
10 19 6 0 10 -2 10 -4z m280 -57 c0 -5 -7 -6 -15 -3 -8 4 -15 13 -15 21 0 13
3 13 15 3 8 -7 15 -16 15 -21z m-239 -6 c12 -14 12 -16 0 -8 -11 6 -13 4 -8
-8 3 -10 2 -17 -2 -17 -5 0 -11 7 -15 15 -3 8 -1 15 5 15 6 0 7 5 4 10 -10 16
1 11 16 -7z m-154 -9 c-3 -3 -12 -4 -19 -1 -8 3 -5 6 6 6 11 1 17 -2 13 -5z
m-76 -37 c-10 -9 -11 -8 -5 6 3 10 9 15 12 12 3 -3 0 -11 -7 -18z m2029 -10
c34 -6 64 -20 78 -34 26 -28 27 -33 8 -58 -13 -17 -15 -18 -30 -3 -9 9 -26 20
-39 23 -12 4 -29 16 -37 26 -18 23 -80 43 -80 27 0 -6 -9 -3 -20 7 -41 37 -15
40 120 12z m-2536 -198 c-3 -5 -10 -7 -15 -3 -5 3 -7 10 -3 15 3 5 10 7 15 3
5 -3 7 -10 3 -15z m-103 -10 c16 -11 29 -27 29 -35 0 -9 7 -22 15 -30 8 -9 15
-29 15 -45 0 -26 -3 -29 -24 -23 -19 4 -26 1 -31 -15 -3 -12 -10 -21 -15 -21
-23 0 -63 70 -44 77 5 2 16 8 24 14 11 8 12 12 3 16 -13 5 -19 83 -7 83 3 0
19 -9 35 -21z m142 -110 c10 0 33 -16 51 -36 l33 -37 37 22 c21 12 49 22 63
22 25 0 26 0 8 -20 -17 -19 -17 -21 -2 -38 10 -10 17 -24 17 -31 0 -6 7 -14
15 -17 8 -4 15 -13 15 -21 0 -13 8 -14 41 -9 l41 7 -7 -30 c-5 -26 -1 -33 44
-71 28 -24 51 -49 51 -56 0 -7 12 -14 28 -16 15 -2 26 -8 25 -14 -1 -7 5 -10
15 -7 13 3 21 -8 35 -46 10 -30 24 -51 33 -51 18 0 57 21 67 38 4 6 12 12 17
12 12 0 13 -27 2 -32 -5 -1 -7 -20 -4 -41 3 -29 10 -41 28 -47 13 -5 24 -16
24 -24 0 -8 23 -31 51 -51 46 -33 51 -40 45 -65 -3 -19 0 -34 10 -44 8 -9 15
-30 16 -48 2 -82 20 -98 64 -57 18 17 26 19 43 10 12 -7 21 -16 21 -21 0 -6 7
-10 15 -10 8 0 15 5 15 10 0 6 8 5 20 -2 17 -11 23 -9 42 10 19 19 21 25 10
42 -7 12 -8 20 -2 20 5 0 10 -5 10 -11 0 -5 5 -7 10 -4 25 15 8 26 -30 20 -41
-7 -41 -7 -35 22 13 56 14 57 32 42 13 -11 17 -11 20 -1 3 6 9 12 13 12 5 0
24 16 43 35 19 19 44 35 55 35 12 0 39 9 61 21 36 19 42 19 56 6 17 -18 20
-43 5 -52 -14 -9 -12 -28 3 -22 6 2 19 -2 28 -10 10 -8 31 -15 48 -15 25 -1
30 -5 26 -19 -3 -9 4 -36 16 -58 12 -23 19 -50 16 -61 -4 -15 0 -20 14 -20 10
0 19 -6 19 -14 0 -9 -7 -12 -20 -9 -16 4 -23 -1 -33 -26 -12 -34 -31 -39 -61
-16 -25 19 -90 19 -105 2 -13 -16 -5 -27 19 -27 21 0 35 -16 44 -50 6 -19 5
-21 -3 -10 -6 9 -11 10 -11 3 0 -6 -8 -14 -17 -16 -15 -4 -14 -5 3 -6 28 -1
56 -34 48 -55 -4 -9 -13 -15 -20 -12 -7 3 -16 -4 -20 -17 -4 -12 -2 -23 5 -25
6 -2 11 -24 11 -48 0 -41 11 -57 25 -34 3 6 12 10 20 10 21 0 -2 -38 -54 -91
-24 -24 -40 -38 -37 -31 5 8 -1 12 -18 12 -22 0 -26 -5 -26 -28 0 -20 -9 -35
-32 -53 -39 -29 -78 -50 -78 -42 0 3 -7 0 -16 -8 -13 -10 -17 -10 -24 1 -4 7
-15 10 -25 6 -9 -3 -26 0 -37 8 -33 23 -78 98 -73 121 3 11 -2 29 -10 40 -13
16 -19 17 -34 8 -10 -7 -22 -9 -25 -6 -3 4 4 11 17 17 12 7 22 20 22 31 0 16
-8 21 -35 23 -88 7 -105 27 -45 55 24 11 33 21 29 32 -4 8 -10 15 -15 15 -5 0
-9 12 -9 28 0 43 -13 56 -49 49 -18 -4 -30 -3 -27 1 10 17 -12 32 -59 41 -59
11 -67 7 -63 -27 2 -22 -2 -28 -19 -30 -29 -4 -32 -42 -4 -42 29 0 36 -18 15
-41 -11 -12 -25 -17 -38 -13 -49 13 -76 27 -76 39 0 7 -7 18 -15 25 -11 9 -12
16 -2 31 6 10 17 19 24 19 16 0 16 10 0 31 -7 9 -18 14 -25 11 -22 -7 -56 17
-70 48 -7 16 -26 35 -43 42 -16 7 -29 18 -29 25 0 10 -87 64 -110 68 -29 6
-49 20 -58 41 -13 27 -25 44 -58 77 -22 24 -36 51 -39 81 -1 11 -14 30 -29 43
-25 21 -25 23 -7 23 11 0 45 -9 75 -21 53 -19 76 -19 76 1 0 5 -6 7 -14 4 -7
-3 -20 1 -27 9 -35 35 -129 53 -129 25 0 -7 -7 -5 -17 5 -54 51 -119 106 -125
107 -12 0 -58 54 -58 67 0 7 -11 15 -25 19 -25 6 -75 61 -75 81 0 20 51 25 70
8 10 -9 51 -25 92 -35 45 -12 79 -27 90 -40 12 -15 33 -23 73 -27 30 -3 55
-10 55 -14 0 -5 7 -9 15 -9 9 0 12 6 9 15 -16 40 66 20 123 -29 24 -20 46 -15
25 6 -7 7 -12 22 -12 34 0 16 -8 24 -27 29 -35 8 -73 32 -73 46 0 6 9 8 20 4
14 -5 20 -2 20 9 0 12 -11 16 -50 16 -47 0 -50 2 -50 25 0 22 4 25 43 27 l42
1 -42 4 c-39 4 -43 7 -43 30 l0 27 -19 -21 c-12 -12 -18 -29 -14 -41 6 -25 -6
-32 -60 -36 -23 -1 -48 -6 -55 -10 -7 -4 -12 -2 -12 3 0 6 -6 11 -14 11 -7 0
-19 7 -26 15 -10 12 -10 18 0 30 9 10 9 15 1 15 -6 0 -11 5 -11 10 0 6 7 10
15 10 8 0 15 -4 15 -10 0 -5 10 -10 21 -10 21 0 22 3 15 61 l-6 61 28 -6 c15
-4 35 -7 45 -7z m337 -20 c0 -5 -4 -9 -10 -9 -5 0 -10 7 -10 16 0 8 5 12 10 9
6 -3 10 -10 10 -16z m3504 -219 l21 -21 -29 -24 c-29 -23 -74 -38 -89 -28 -4
2 -14 20 -22 40 -12 28 -13 39 -3 50 18 22 94 11 122 -17z m140 -445 c-7 -17
-7 -17 -66 -19 -39 -2 -57 7 -58 27 0 4 29 7 65 7 53 0 63 -3 59 -15z m-3300
-304 c3 -4 -6 -6 -19 -3 -14 2 -25 6 -25 8 0 8 39 4 44 -5z"/>
<path d="M2912 7608 c2 -6 10 -14 16 -16 7 -2 10 2 6 12 -7 18 -28 22 -22 4z"/>
<path d="M2950 7614 c0 -3 7 -12 15 -20 13 -13 15 -13 15 -1 0 8 -7 17 -15 21
-8 3 -15 3 -15 0z"/>
<path d="M3085 7610 c4 -6 11 -8 16 -5 14 9 11 15 -7 15 -8 0 -12 -5 -9 -10z"/>
<path d="M3128 7603 c7 -3 16 -2 19 1 4 3 -2 6 -13 5 -11 0 -14 -3 -6 -6z"/>
<path d="M3248 7598 c5 -5 16 -8 23 -6 8 3 3 7 -10 11 -17 4 -21 3 -13 -5z"/>
<path d="M3195 7580 c-4 -6 -1 -9 7 -8 7 2 12 -4 10 -14 -2 -12 2 -16 13 -12
20 8 19 17 -5 31 -12 8 -21 9 -25 3z"/>
<path d="M2842 7565 c-13 -7 -20 -15 -15 -17 4 -3 19 1 31 7 13 7 20 15 15 17
-4 3 -19 -1 -31 -7z"/>
<path d="M2943 7565 c-7 -8 -9 -16 -4 -19 5 -3 12 1 15 10 8 22 4 25 -11 9z"/>
<path d="M3125 7560 c3 -5 11 -10 16 -10 6 0 7 5 4 10 -3 6 -11 10 -16 10 -6
0 -7 -4 -4 -10z"/>
<path d="M2710 7520 c0 -5 5 -10 10 -10 6 0 10 5 10 10 0 6 -4 10 -10 10 -5 0
-10 -4 -10 -10z"/>
<path d="M3190 7520 c-8 -5 -11 -13 -6 -17 5 -4 11 -3 13 3 3 8 15 9 38 4 20
-4 35 -4 35 1 0 5 -9 9 -19 9 -11 0 -25 2 -33 5 -7 3 -20 1 -28 -5z"/>
<path d="M3180 7476 c0 -2 7 -7 16 -10 8 -3 12 -2 9 4 -6 10 -25 14 -25 6z"/>
<path d="M2765 7440 c-3 -6 1 -7 9 -4 18 7 21 14 7 14 -6 0 -13 -4 -16 -10z"/>
<path d="M3511 7334 c0 -11 3 -14 6 -6 3 7 2 16 -1 19 -3 4 -6 -2 -5 -13z"/>
<path d="M2405 7329 c-10 -15 3 -25 16 -12 7 7 7 13 1 17 -6 3 -14 1 -17 -5z"/>
<path d="M3540 7322 c0 -4 5 -13 12 -20 9 -9 8 -17 -2 -37 -10 -18 -10 -29 -3
-36 7 -7 13 3 17 35 4 25 4 50 1 56 -7 12 -25 13 -25 2z"/>
<path d="M2375 7311 c-3 -5 -1 -12 5 -16 5 -3 10 1 10 9 0 18 -6 21 -15 7z"/>
<path d="M3570 7250 c0 -6 6 -13 14 -16 23 -9 8 -32 -17 -28 -20 4 -20 4 2 -8
19 -10 25 -10 29 0 2 7 8 10 13 6 18 -11 9 22 -11 39 -23 20 -30 21 -30 7z"/>
<path d="M3495 7240 c-19 -8 -19 -9 3 -9 12 -1 22 4 22 9 0 6 -1 10 -2 9 -2 0
-12 -4 -23 -9z"/>
<path d="M3457 6980 c7 -27 19 -33 40 -20 15 10 15 11 1 6 -10 -3 -18 2 -21
15 -3 10 -10 19 -15 19 -6 0 -8 -9 -5 -20z"/>
<path d="M2210 6820 c0 -5 7 -10 15 -10 8 0 15 5 15 10 0 6 -7 10 -15 10 -8 0
-15 -4 -15 -10z"/>
<path d="M3425 6500 c-8 -13 5 -13 25 0 13 8 13 10 -2 10 -9 0 -20 -4 -23 -10z"/>
<path d="M3209 6265 c-8 -16 2 -115 12 -115 10 0 10 63 0 100 -4 14 -9 20 -12
15z"/>
<path d="M3846 6124 c3 -13 -71 -34 -143 -41 -29 -3 -53 -9 -53 -13 0 -11 119
-1 142 11 24 13 82 11 96 -3 9 -9 12 -9 12 0 0 7 -4 12 -10 12 -5 0 -10 7 -10
15 0 8 -6 15 -14 15 -8 0 -16 3 -19 8 -2 4 -3 2 -1 -4z"/>
<path d="M3420 6102 c0 -13 47 -35 58 -28 6 3 13 2 17 -4 8 -13 145 -13 145 0
0 9 -74 15 -121 11 -8 -1 -29 5 -45 14 -32 17 -54 19 -54 7z"/>
<path d="M2410 6060 c0 -5 5 -10 10 -10 6 0 10 5 10 10 0 6 -4 10 -10 10 -5 0
-10 -4 -10 -10z"/>
<path d="M2447 5493 c-13 -13 -7 -21 13 -16 11 3 20 9 20 14 0 10 -24 12 -33
2z"/>
<path d="M3890 5420 c0 -5 5 -10 11 -10 5 0 7 5 4 10 -3 6 -8 10 -11 10 -2 0
-4 -4 -4 -10z"/>
<path d="M3875 5370 c-3 -5 -1 -10 4 -10 6 0 11 5 11 10 0 6 -2 10 -4 10 -3 0
-8 -4 -11 -10z"/>
<path d="M5981 7201 c-10 -6 -10 -10 -1 -16 13 -8 24 -1 19 14 -3 6 -10 7 -18
2z"/>
<path d="M1953 5154 c-3 -8 -1 -20 6 -27 8 -8 11 -4 11 16 0 30 -7 35 -17 11z"/>
<path d="M3225 5040 c-3 -5 -2 -10 4 -10 5 0 13 5 16 10 3 6 2 10 -4 10 -5 0
-13 -4 -16 -10z"/>
<path d="M3180 5025 c-14 -8 -20 -14 -14 -15 5 0 19 7 30 15 24 18 16 19 -16
0z"/>
<path d="M3271 4674 c0 -11 3 -14 6 -6 3 7 2 16 -1 19 -3 4 -6 -2 -5 -13z"/>
<path d="M3083 4593 c9 -2 25 -2 35 0 9 3 1 5 -18 5 -19 0 -27 -2 -17 -5z"/>
<path d="M3168 4593 c7 -3 16 -2 19 1 4 3 -2 6 -13 5 -11 0 -14 -3 -6 -6z"/>
<path d="M3040 4441 c0 -5 5 -13 10 -16 6 -3 10 -2 10 4 0 5 -4 13 -10 16 -5
3 -10 2 -10 -4z"/>
<path d="M3434 4425 c8 -8 18 -15 22 -15 3 0 1 7 -6 15 -7 8 -17 15 -22 15 -5
0 -3 -7 6 -15z"/>
<path d="M3031 4404 c0 -11 3 -14 6 -6 3 7 2 16 -1 19 -3 4 -6 -2 -5 -13z"/>
<path d="M2803 4398 c-15 -25 -11 -38 10 -38 17 0 19 2 8 9 -8 5 -11 16 -8 25
8 19 1 21 -10 4z"/>
<path d="M3193 4385 c-10 -10 -9 -14 2 -19 17 -6 26 5 17 21 -5 8 -11 7 -19
-2z"/>
<path d="M2918 4363 c7 -3 16 -2 19 1 4 3 -2 6 -13 5 -11 0 -14 -3 -6 -6z"/>
<path d="M3270 4363 c0 -5 5 -15 10 -23 8 -12 10 -11 10 8 0 12 -4 22 -10 22
-5 0 -10 -3 -10 -7z"/>
<path d="M3057 4353 c-4 -3 -7 -11 -7 -17 0 -6 5 -5 12 2 6 6 9 14 7 17 -3 3
-9 2 -12 -2z"/>
<path d="M2800 4329 c0 -5 5 -7 10 -4 6 3 10 8 10 11 0 2 -4 4 -10 4 -5 0 -10
-5 -10 -11z"/>
<path d="M2837 4185 c-4 -8 -2 -17 3 -20 11 -7 40 5 40 17 0 6 -7 7 -16 4 -8
-3 -12 -2 -9 4 3 6 2 10 -3 10 -6 0 -12 -7 -15 -15z"/>
<path d="M2322 3658 c5 -15 48 -24 48 -10 0 10 -23 22 -42 22 -5 0 -8 -6 -6
-12z"/>
<path d="M2594 3585 c-8 -19 4 -35 26 -35 16 0 30 18 30 39 0 14 -51 11 -56
-4z"/>
<path d="M2848 3022 c-19 -9 -28 -21 -28 -38 0 -13 4 -24 10 -24 13 0 50 -32
50 -44 0 -5 -8 -15 -17 -22 -16 -12 -15 -13 14 -14 27 0 32 -4 38 -31 5 -20
12 -29 23 -27 23 5 25 25 4 46 -12 12 -21 40 -26 78 -8 73 -28 96 -68 76z"/>
<path d="M3646 2987 c-24 -24 -26 -31 -15 -42 9 -8 28 -11 52 -8 38 5 52 23
18 23 -14 0 -21 8 -23 28 l-3 27 -29 -28z"/>
<path d="M3272 2929 c8 -23 13 -28 22 -19 8 9 8 14 -1 17 -7 3 -13 11 -13 19
0 8 -4 14 -9 14 -6 0 -6 -12 1 -31z"/>
<path d="M3208 2853 c6 -2 18 -2 25 0 6 3 1 5 -13 5 -14 0 -19 -2 -12 -5z"/>
<path d="M3200 2800 c0 -17 7 -20 40 -20 46 0 51 10 13 28 -38 17 -53 15 -53
-8z"/>
<path d="M2938 2793 c7 -3 16 -2 19 1 4 3 -2 6 -13 5 -11 0 -14 -3 -6 -6z"/>
<path d="M3280 2730 c0 -5 5 -10 11 -10 5 0 7 5 4 10 -3 6 -8 10 -11 10 -2 0
-4 -4 -4 -10z"/>
<path d="M2965 2710 c3 -5 8 -10 11 -10 2 0 4 5 4 10 0 6 -5 10 -11 10 -5 0
-7 -4 -4 -10z"/>
<path d="M3313 2684 c21 -9 41 -14 44 -10 10 9 1 14 -42 20 l-40 7 38 -17z"/>
<path d="M3613 2643 c9 -2 23 -2 30 0 6 3 -1 5 -18 5 -16 0 -22 -2 -12 -5z"/>
<path d="M3350 2623 c0 -15 19 -37 26 -31 3 4 -1 14 -10 23 -9 9 -16 13 -16 8z"/>
<path d="M4740 7575 c0 -14 -4 -25 -9 -25 -15 0 -22 -30 -11 -48 9 -16 9 -16
10 1 0 9 4 17 9 17 5 0 11 10 14 23 2 12 8 30 12 40 5 12 3 17 -9 17 -10 0
-16 -9 -16 -25z"/>
<path d="M4923 7502 c-41 -19 -41 -26 -3 -42 16 -7 28 -16 25 -20 -8 -13 18
-18 38 -8 23 12 22 49 -2 55 -11 3 -21 11 -23 18 -2 10 -10 9 -35 -3z"/>
<path d="M5150 7290 c0 -5 -7 -10 -15 -10 -9 0 -15 -9 -15 -23 0 -45 43 -62
73 -29 22 24 21 27 -5 52 -24 22 -38 26 -38 10z"/>
<path d="M5272 6988 c-14 -14 -16 -40 -3 -53 5 -6 11 -26 15 -46 6 -33 3 -39
-29 -66 -19 -17 -35 -34 -35 -39 0 -5 -15 -28 -33 -51 -17 -23 -49 -69 -71
-103 -34 -55 -37 -66 -31 -106 3 -24 11 -44 16 -44 6 0 20 -11 32 -25 16 -19
33 -26 62 -27 52 -2 84 -25 85 -60 0 -16 -3 -28 -7 -28 -5 0 -24 -15 -43 -33
-39 -35 -94 -67 -115 -67 -7 0 -18 -6 -25 -14 -6 -8 -24 -16 -38 -18 -24 -3
-27 -8 -30 -45 -3 -39 -1 -43 30 -56 46 -20 70 -49 66 -83 -3 -29 -2 -29 42
-25 25 1 47 7 48 12 7 17 67 69 80 69 6 0 21 -9 32 -20 11 -11 29 -20 40 -20
27 0 80 27 80 41 0 5 10 23 22 39 19 27 20 37 14 125 -3 52 -14 112 -23 133
-28 65 -66 136 -88 167 -37 49 -51 123 -36 192 14 67 28 98 56 129 62 68 56
102 -21 121 -65 15 -78 15 -92 1z"/>
<path d="M5910 6230 c-28 -27 -57 -50 -64 -50 -24 0 -106 39 -106 50 0 17 -49
11 -70 -8 -38 -36 -52 -109 -25 -136 8 -8 15 -21 15 -28 0 -19 67 -78 88 -78
9 0 35 14 56 30 44 33 57 36 89 18 12 -6 36 -13 52 -15 17 -1 40 -5 52 -8 15
-4 28 3 42 21 12 15 21 31 21 36 0 5 9 28 20 51 13 27 17 43 10 45 -7 3 -5 11
5 22 10 11 14 27 11 37 -6 19 -96 63 -129 63 -9 0 -39 -22 -67 -50z"/>
<path d="M5280 5900 c0 -22 20 -26 38 -8 19 19 14 28 -13 28 -18 0 -25 -5 -25
-20z"/>
<path d="M5050 5759 c-8 -11 -30 -27 -48 -34 -18 -8 -39 -21 -47 -29 -8 -8
-20 -16 -27 -18 -19 -7 1 -57 32 -80 14 -10 48 -21 75 -24 41 -5 55 -3 75 14
21 17 25 30 28 96 4 72 3 76 -17 76 -12 0 -21 5 -21 10 0 18 -35 10 -50 -11z"/>
<path d="M5227 5713 c-4 -3 -7 -28 -7 -54 0 -26 -4 -59 -10 -73 -5 -15 -13
-68 -16 -120 -6 -89 -5 -96 21 -149 23 -45 34 -56 57 -59 58 -9 63 4 66 175
l3 154 -30 49 c-17 26 -31 56 -31 66 0 12 -8 18 -23 18 -13 0 -27 -3 -30 -7z"/>
<path d="M5323 5159 c13 -100 35 -206 51 -244 19 -43 71 -94 99 -95 38 0 94
-58 177 -182 13 -20 28 -34 33 -31 5 3 6 36 2 74 -11 108 -8 184 8 215 26 53
17 76 -41 103 -29 14 -52 28 -52 33 0 4 18 8 40 8 53 0 74 29 59 83 -9 33 -13
37 -44 37 -18 0 -64 6 -102 14 -37 8 -106 17 -152 21 l-83 7 5 -43z m357 -504
c0 -8 -4 -15 -10 -15 -5 0 -7 7 -4 15 4 8 8 15 10 15 2 0 4 -7 4 -15z"/>
<path d="M6220 5120 c-13 -9 -13 -12 4 -25 10 -8 42 -19 70 -25 29 -6 60 -19
69 -30 27 -32 37 -24 37 29 0 46 -1 49 -31 55 -48 9 -132 7 -149 -4z"/>
<path d="M6125 1770 c-3 -5 -1 -10 6 -10 7 0 2 -11 -11 -24 -13 -15 -20 -32
-17 -40 4 -9 3 -16 -2 -16 -4 0 -8 -100 -9 -222 -2 -222 -6 -285 -22 -343 -5
-16 -11 -70 -14 -120 -8 -115 -23 -245 -36 -315 -6 -30 -12 -68 -14 -83 -1
-16 -7 -32 -13 -35 -6 -4 -13 -36 -17 -71 -4 -35 -18 -85 -31 -111 -13 -26
-22 -56 -19 -66 3 -11 0 -40 -6 -64 -6 -25 -12 -60 -14 -78 -2 -18 -8 -38 -14
-45 -5 -7 -12 -38 -14 -70 l-5 -57 264 0 263 0 -2 608 c-1 334 -3 590 -5 570
-3 -24 -11 -42 -24 -48 -42 -23 -83 104 -60 187 16 63 14 89 -12 110 -33 27
-55 65 -68 120 -6 26 -24 76 -40 109 -16 34 -29 69 -29 79 0 22 -27 49 -35 35z"/>
</g>
</svg>
