<?xml version="1.0" ?><!DOCTYPE svg  PUBLIC '-//W3C//DTD SVG 1.1//EN'  'http://www.w3.org/Graphics/SVG/1.1/DTD/svg11.dtd'><svg height="512px" style="enable-background:new 0 0 512 512;" version="1.1" viewBox="0 0 512 512" width="512px" xml:space="preserve" xmlns="http://www.w3.org/2000/svg" xmlns:xlink="http://www.w3.org/1999/xlink"><g id="_x31_13-fiverr"><g><g><g><path d="M420.039,405.532V166.28H181.436v-14.953c0-24.736,20.072-44.858,44.736-44.858h44.738V16.75      h-44.738c-73.995,0-134.21,60.379-134.21,134.577v14.953H32.312V256h59.649v149.532H32.312v89.718H241.09v-89.718h-59.654V256      h149.957v149.532H270.91v89.718h208.777v-89.718H420.039z M420.039,405.532" style="fill:#3F535D;"/><path d="M420.039,61.61c0,24.777-20.035,44.859-44.742,44.859c-24.703,0-44.734-20.082-44.734-44.859      c0-24.779,20.031-44.859,44.734-44.859C400.004,16.75,420.039,36.831,420.039,61.61L420.039,61.61z M420.039,61.61" style="fill:#3F535D;"/></g></g></g></g><g id="Layer_1"/></svg>